<!--?xml version="1.0" standalone="no"?-->
              <svg id="sw-js-blob-svg" viewBox="0 0 100 100" xmlns="http://www.w3.org/2000/svg" version="1.1">
                    <defs> 
                        <linearGradient id="sw-gradient" x1="0" x2="1" y1="1" y2="0">
                            <stop id="stop1" stop-color="rgba(255, 73.513, 73.513, 1)" offset="0%"></stop>
                            <stop id="stop2" stop-color="rgba(255, 199.213, 0, 1)" offset="100%"></stop>
                        </linearGradient>
                    </defs>
                <path fill="url(#sw-gradient)" d="M13.6,-19.8C19.2,-14.6,26.4,-12.8,30.9,-7.9C35.4,-3.1,37.1,4.8,35.3,11.8C33.5,18.8,28.1,25,21.6,30.8C15.1,36.6,7.6,42,-1,43.4C-9.6,44.8,-19.1,42.1,-25.8,36.4C-32.5,30.7,-36.3,21.9,-38.5,13C-40.8,4.1,-41.4,-4.7,-38.6,-12.3C-35.8,-19.9,-29.6,-26.1,-22.6,-30.8C-15.6,-35.5,-7.8,-38.8,-1.9,-36.2C4,-33.5,7.9,-25,13.6,-19.8Z" width="100%" height="100%" transform="translate(50 50)" stroke-width="0" style="transition: all 0.3s ease 0s;" stroke="url(#sw-gradient)"></path>
              </svg>